<?xml version="1.0" encoding="UTF-8" standalone="no" ?>
<!DOCTYPE svg PUBLIC "-//W3C//DTD SVG 1.1//EN" "http://www.w3.org/Graphics/SVG/1.1/DTD/svg11.dtd">
<svg xmlns="http://www.w3.org/2000/svg" xmlns:xlink="http://www.w3.org/1999/xlink" version="1.1" width="1080" height="1080" viewBox="0 0 1080 1080" xml:space="preserve">
<desc>Created with Fabric.js 5.2.4</desc>
<defs>
</defs>
<g transform="matrix(1 0 0 1 540 540)" id="8529d366-0d4f-40ab-afac-ba47d1510137"  >
<rect style="stroke: none; stroke-width: 1; stroke-dasharray: none; stroke-linecap: butt; stroke-dashoffset: 0; stroke-linejoin: miter; stroke-miterlimit: 4; fill: rgb(255,255,255); fill-rule: nonzero; opacity: 1; visibility: hidden;" vector-effect="non-scaling-stroke"  x="-540" y="-540" rx="0" ry="0" width="1080" height="1080" />
</g>
<g transform="matrix(1 0 0 1 540 540)" id="49e49fe5-71b0-4aa9-b4c4-ee8ddccd4f04"  >
</g>
<g transform="matrix(1 0 0 0.97 540 525.48)"  >
<g style="" vector-effect="non-scaling-stroke"   >
		<g transform="matrix(1 0 0 1 -0.18 1.59)"  >
<path style="stroke: none; stroke-width: 1; stroke-dasharray: none; stroke-linecap: butt; stroke-dashoffset: 0; stroke-linejoin: miter; stroke-miterlimit: 4; fill: rgb(20,28,72); fill-rule: evenodd; opacity: 1;" vector-effect="non-scaling-stroke"  transform=" translate(-512.32, -513.59)" d="M 370.5 240.109 C 323.284 246.915 284.888 278.85 272.492 321.624 C 268.612 335.013 267.567 343.17 267.64 359.5 C 267.797 394.752 279.638 423.153 303.737 446.087 C 317.583 459.263 331.073 467.35 348.5 472.921 C 365.466 478.345 372.946 479.457 392 479.388 C 407.582 479.331 410.572 479.038 419.277 476.713 C 437.735 471.783 454.589 462.342 466.887 450.044 C 473.328 443.603 485 427.592 485 425.198 C 485 424.604 485.337 423.909 485.75 423.654 C 486.163 423.399 486.39 439.851 486.255 460.215 L 486.009 497.241 L 480.789 500.37 C 474.824 503.947 468.719 511.454 466.511 517.928 C 464.332 524.314 464.574 534.787 467.054 541.414 C 469.921 549.078 476.652 556.211 484.798 560.219 C 490.871 563.208 492.268 563.496 500.482 563.458 C 508.336 563.421 510.189 563.058 514.84 560.645 C 522.332 556.759 528.487 550.744 531.73 544.142 C 534.134 539.246 534.5 537.31 534.5 529.5 C 534.5 521.827 534.105 519.657 531.819 514.78 C 528.883 508.515 521.854 501.01 517.064 499.026 L 514.013 497.763 L 513.756 423.131 L 513.5 348.5 L 458.5 348.5 L 403.5 348.5 L 403.232 371.75 L 402.963 395 L 430.482 395 C 445.617 395 458 395.284 458 395.632 C 458 397.564 453.016 403.724 446.784 409.494 C 438.52 417.145 425.897 423.844 413.5 427.159 C 402.955 429.978 382.643 430.235 373.066 427.67 C 340.471 418.941 320.579 389.87 322.316 353.5 C 323.563 327.386 335.32 309.105 358.289 297.566 C 383.626 284.837 411.584 288.07 435.774 306.524 C 440.609 310.212 443.51 311.809 444.428 311.286 C 446.876 309.891 478.49 279.693 478.799 278.454 C 479.177 276.935 468.64 267.292 459.5 260.793 C 445.284 250.685 427.391 243.369 409.973 240.544 C 399.847 238.902 380.362 238.687 370.5 240.109 M 646.5 240.042 C 596.25 247.841 559.271 285.6 552.035 336.5 C 550.712 345.808 550.736 366.959 552.082 376.633 C 555.805 403.4 566.896 427.588 583.276 444.662 C 620.395 483.352 683.838 490.349 729.234 460.759 C 738.308 454.844 752 442.621 752 440.436 C 752 439.708 751.061 438.456 749.914 437.652 C 748.767 436.849 744.826 433.336 741.158 429.846 C 737.49 426.355 730.537 419.762 725.708 415.193 L 716.928 406.885 L 710.714 411.81 C 698.239 421.695 686.352 426.611 672.558 427.589 C 641.849 429.767 614.65 408.694 607.004 376.799 C 604.321 365.609 604.328 350.36 607.022 339.124 C 611.472 320.562 623.933 304.083 639 296.837 C 648.943 292.055 654.22 290.915 666.358 290.926 C 683.2 290.941 697.339 295.768 711.831 306.449 C 715.313 309.015 718.743 310.977 719.454 310.808 C 720.164 310.638 729.148 303.075 739.419 294 L 758.093 277.5 L 751.796 271.713 C 736.147 257.329 714.688 246.552 691.5 241.431 C 683.115 239.579 655.063 238.713 646.5 240.042 M 494.237 519.997 C 490.333 522.378 487.484 527.808 488.343 531.232 C 490.128 538.341 497.763 542.379 504.276 539.658 C 508.122 538.051 511.993 532.956 511.993 529.5 C 511.993 526.421 508.421 521.269 505.094 519.549 C 501.096 517.481 498.165 517.602 494.237 519.997 M 286.459 601.395 C 265.979 606.37 252.799 623.966 252.672 646.5 C 252.589 661.328 257.358 673.408 266.739 682.135 C 277.32 691.978 284.87 694.44 302.404 693.766 C 316.663 693.218 323.357 691.101 331.253 684.643 C 340.421 677.144 346 663.302 346 648.053 L 346 641 L 324 641 L 302 641 L 302 648.5 L 302 656 L 314.5 656 C 328.348 656 328.148 655.876 325.114 662.556 C 317.993 678.234 291.573 681.528 279.867 668.196 C 272.853 660.207 270.341 648.22 273.443 637.546 C 275.741 629.642 283.36 621.862 291.034 619.583 C 301.404 616.503 310.479 617.766 318.952 623.468 L 324.008 626.87 L 331.024 620.771 L 338.041 614.672 L 335.77 612.248 C 332.526 608.784 318.543 602.326 311.566 601.069 C 303.932 599.694 292.87 599.837 286.459 601.395 M 367 647.5 L 367 693 L 376.5 693 L 386 693 L 386 647.5 L 386 602 L 376.5 602 L 367 602 L 367 647.5 M 406 610.5 L 406 619 L 420 619 L 434 619 L 434 656 L 434 693 L 443.5 693 L 453 693 L 453 656 L 453 619 L 466.427 619 L 479.853 619 L 480.177 610.498 L 480.5 601.995 L 443.25 601.998 L 406 602 L 406 610.5 M 500 647.5 L 500 693 L 509.5 693 L 519 693 L 519 675 L 519 657 L 537.25 657 L 555.5 656.999 L 555.5 674.75 L 555.5 692.5 L 565.25 692.786 L 575 693.072 L 575 647.536 L 575 602 L 565 602 L 555 602 L 555 621.023 L 555 640.046 L 537.414 639.773 L 519.829 639.5 L 519.953 620.75 L 520.078 602 L 510.039 602 L 500 602 L 500 647.5 M 597.255 633.75 C 597.512 653.919 598.079 666.782 598.811 669.014 C 604.225 685.522 618.039 694.461 638 694.372 C 652.454 694.307 662.835 689.482 670.696 679.177 C 676.761 671.224 677.272 667.904 677.755 633.25 L 678.191 602 L 668.096 602 L 658 602 L 657.978 631.75 C 657.954 664.841 657.627 666.771 651.111 672.253 C 643.23 678.885 629.494 678.428 622.363 671.296 C 616.673 665.606 616 661.22 616 629.818 L 616 602 L 606.426 602 L 596.851 602 L 597.255 633.75 M 701 647.562 L 701 693.125 L 726.25 692.812 C 750.133 692.517 751.771 692.375 756.5 690.199 C 766.758 685.478 771.94 677.86 771.978 667.446 C 772.005 659.896 768.541 652.382 763.201 648.41 C 761.166 646.896 759.306 645.502 759.068 645.313 C 758.831 645.125 760.018 643.514 761.706 641.735 C 771.293 631.632 771.037 617.714 761.1 608.78 C 758.407 606.359 754.418 603.843 752.236 603.189 C 749.656 602.416 740 602 724.634 602 L 701 602 L 701 647.562 M 720 628.5 L 720 638 L 730.75 637.998 C 738.989 637.997 742.312 637.589 744.978 636.248 C 750.592 633.426 751.613 625.613 746.975 620.975 C 745.219 619.219 743.613 619 732.5 619 L 720 619 L 720 628.5 M 720 665.1 L 720 676.201 L 732.75 675.828 C 746.633 675.421 749.091 674.609 751.099 669.761 C 752.413 666.589 751.735 660.591 749.798 658.256 C 747.199 655.121 742.255 654 731.032 654 L 720 654 L 720 665.1 M 343.718 729.028 C 335.252 731.164 328.266 736.668 324.195 744.41 C 321.868 748.835 321.518 750.676 321.518 758.5 C 321.518 766.344 321.865 768.16 324.219 772.638 C 329.604 782.881 338.693 788 351.497 788 C 361.198 788 367.718 785.881 373.397 780.881 C 377.965 776.861 378.04 776.702 376.293 774.769 C 375.307 773.677 373.228 771.878 371.674 770.77 L 368.848 768.755 L 365.674 771.816 C 361.621 775.725 358.158 777.004 351.685 776.984 C 341.169 776.95 334 769.378 334 758.303 C 334 749.7 337.842 743.635 345.254 740.538 C 351.964 737.735 360.436 739.242 365.684 744.173 L 367.896 746.251 L 371.948 743.041 C 374.177 741.276 376 739.504 376 739.103 C 376 737.721 370.489 733.215 366.119 731.023 C 361.113 728.512 349.768 727.502 343.718 729.028 M 400 758.28 L 400 787.56 L 419.5 787.614 L 439 787.668 L 439 781.834 L 439 776 L 425.5 776 L 412 776 L 412 770 L 412 764 L 423.5 764 L 435 764 L 435 759 L 435 754 L 423.5 754 L 412 754 L 412 747 L 412 740 L 425.5 740 L 439 740 L 439 734.5 L 439 729 L 419.5 729 L 400 729 L 400 758.28 M 461.235 758.25 L 461.5 787.5 L 467 787.625 L 472.5 787.749 L 473 768.225 L 473.5 748.701 L 487.418 768.363 L 501.337 788.025 L 507.668 787.796 L 514 787.567 L 514 758.283 L 514 729 L 508.022 729 L 502.043 729 L 501.772 748.121 L 501.5 767.241 L 488 748.165 L 474.5 729.089 L 467.735 729.045 L 460.97 729 L 461.235 758.25 M 534 734.5 L 534 740 L 543.033 740 L 552.065 740 L 551.961 763.75 L 551.857 787.5 L 557.679 787.5 L 563.5 787.5 L 563.768 763.75 L 564.036 740 L 573.018 740 L 582 740 L 582 734.5 L 582 729 L 558 729 L 534 729 L 534 734.5 M 602 758.414 L 602 787.827 L 621.5 787.664 L 641 787.5 L 641 781.75 L 641 776 L 627.45 776 L 613.9 776 L 614.2 770.25 L 614.5 764.5 L 625.75 764.217 L 637 763.934 L 637 758.967 L 637 754 L 625.5 754 L 614 754 L 614 747 L 614 740 L 627.5 740 L 641 740 L 641 734.5 L 641 729 L 621.5 729 L 602 729 L 602 758.414 M 664 758.5 L 664 788 L 670 788 L 676 788 L 676 778 L 676 768 L 680.25 768.005 L 684.5 768.011 L 689.818 778.005 L 695.136 788 L 701.568 788 C 705.106 788 708 787.7 708 787.334 C 708 786.968 705.57 782.117 702.599 776.555 L 697.198 766.441 L 700.567 764.232 C 709.566 758.333 710.364 742.854 702.078 734.963 C 696.951 730.081 692.428 729 677.134 729 L 664 729 L 664 758.5 M 676 749.106 L 676 758.212 L 683.97 757.85 C 693.197 757.431 694.877 756.333 695.702 750.186 C 696.184 746.592 695.881 745.727 693.202 743.048 C 690.379 740.225 689.632 740 683.077 740 L 676 740 L 676 749.106" stroke-linecap="round" />
</g>
		<g transform="matrix(1 0 0 1 0 0)"  >
<path style="stroke: none; stroke-width: 1; stroke-dasharray: none; stroke-linecap: butt; stroke-dashoffset: 0; stroke-linejoin: miter; stroke-miterlimit: 4; fill: rgb(251,251,251); fill-rule: evenodd; opacity: 1;" vector-effect="non-scaling-stroke"  transform=" translate(-512.5, -512)" d="M 0 512.001 L 0 1024.002 L 512.25 1023.751 L 1024.5 1023.5 L 1024.751 511.75 L 1025.002 0 L 512.501 0 L 0 0 L 0 512.001 M 0.496 512.5 C 0.496 794.1 0.61 909.151 0.75 768.168 C 0.89 627.186 0.89 396.786 0.75 256.168 C 0.61 115.551 0.496 230.9 0.496 512.5 M 370.5 240.109 C 323.284 246.915 284.888 278.85 272.492 321.624 C 268.612 335.013 267.567 343.17 267.64 359.5 C 267.797 394.752 279.638 423.153 303.737 446.087 C 317.583 459.263 331.073 467.35 348.5 472.921 C 365.466 478.345 372.946 479.457 392 479.388 C 407.582 479.331 410.572 479.038 419.277 476.713 C 437.735 471.783 454.589 462.342 466.887 450.044 C 473.328 443.603 485 427.592 485 425.198 C 485 424.604 485.337 423.909 485.75 423.654 C 486.163 423.399 486.39 439.851 486.255 460.215 L 486.009 497.241 L 480.789 500.37 C 474.824 503.947 468.719 511.454 466.511 517.928 C 464.332 524.314 464.574 534.787 467.054 541.414 C 469.921 549.078 476.652 556.211 484.798 560.219 C 490.871 563.208 492.268 563.496 500.482 563.458 C 508.336 563.421 510.189 563.058 514.84 560.645 C 522.332 556.759 528.487 550.744 531.73 544.142 C 534.134 539.246 534.5 537.31 534.5 529.5 C 534.5 521.827 534.105 519.657 531.819 514.78 C 528.883 508.515 521.854 501.01 517.064 499.026 L 514.013 497.763 L 513.756 423.131 L 513.5 348.5 L 458.5 348.5 L 403.5 348.5 L 403.232 371.75 L 402.963 395 L 430.482 395 C 445.617 395 458 395.284 458 395.632 C 458 397.564 453.016 403.724 446.784 409.494 C 438.52 417.145 425.897 423.844 413.5 427.159 C 402.955 429.978 382.643 430.235 373.066 427.67 C 340.471 418.941 320.579 389.87 322.316 353.5 C 323.563 327.386 335.32 309.105 358.289 297.566 C 383.626 284.837 411.584 288.07 435.774 306.524 C 440.609 310.212 443.51 311.809 444.428 311.286 C 446.876 309.891 478.49 279.693 478.799 278.454 C 479.177 276.935 468.64 267.292 459.5 260.793 C 445.284 250.685 427.391 243.369 409.973 240.544 C 399.847 238.902 380.362 238.687 370.5 240.109 M 646.5 240.042 C 596.25 247.841 559.271 285.6 552.035 336.5 C 550.712 345.808 550.736 366.959 552.082 376.633 C 555.805 403.4 566.896 427.588 583.276 444.662 C 620.395 483.352 683.838 490.349 729.234 460.759 C 738.308 454.844 752 442.621 752 440.436 C 752 439.708 751.061 438.456 749.914 437.652 C 748.767 436.849 744.826 433.336 741.158 429.846 C 737.49 426.355 730.537 419.762 725.708 415.193 L 716.928 406.885 L 710.714 411.81 C 698.239 421.695 686.352 426.611 672.558 427.589 C 641.849 429.767 614.65 408.694 607.004 376.799 C 604.321 365.609 604.328 350.36 607.022 339.124 C 611.472 320.562 623.933 304.083 639 296.837 C 648.943 292.055 654.22 290.915 666.358 290.926 C 683.2 290.941 697.339 295.768 711.831 306.449 C 715.313 309.015 718.743 310.977 719.454 310.808 C 720.164 310.638 729.148 303.075 739.419 294 L 758.093 277.5 L 751.796 271.713 C 736.147 257.329 714.688 246.552 691.5 241.431 C 683.115 239.579 655.063 238.713 646.5 240.042 M 494.237 519.997 C 490.333 522.378 487.484 527.808 488.343 531.232 C 490.128 538.341 497.763 542.379 504.276 539.658 C 508.122 538.051 511.993 532.956 511.993 529.5 C 511.993 526.421 508.421 521.269 505.094 519.549 C 501.096 517.481 498.165 517.602 494.237 519.997 M 286.459 601.395 C 265.979 606.37 252.799 623.966 252.672 646.5 C 252.589 661.328 257.358 673.408 266.739 682.135 C 277.32 691.978 284.87 694.44 302.404 693.766 C 316.663 693.218 323.357 691.101 331.253 684.643 C 340.421 677.144 346 663.302 346 648.053 L 346 641 L 324 641 L 302 641 L 302 648.5 L 302 656 L 314.5 656 C 328.348 656 328.148 655.876 325.114 662.556 C 317.993 678.234 291.573 681.528 279.867 668.196 C 272.853 660.207 270.341 648.22 273.443 637.546 C 275.741 629.642 283.36 621.862 291.034 619.583 C 301.404 616.503 310.479 617.766 318.952 623.468 L 324.008 626.87 L 331.024 620.771 L 338.041 614.672 L 335.77 612.248 C 332.526 608.784 318.543 602.326 311.566 601.069 C 303.932 599.694 292.87 599.837 286.459 601.395 M 367 647.5 L 367 693 L 376.5 693 L 386 693 L 386 647.5 L 386 602 L 376.5 602 L 367 602 L 367 647.5 M 406 610.5 L 406 619 L 420 619 L 434 619 L 434 656 L 434 693 L 443.5 693 L 453 693 L 453 656 L 453 619 L 466.427 619 L 479.853 619 L 480.177 610.498 L 480.5 601.995 L 443.25 601.998 L 406 602 L 406 610.5 M 500 647.5 L 500 693 L 509.5 693 L 519 693 L 519 675 L 519 657 L 537.25 657 L 555.5 656.999 L 555.5 674.75 L 555.5 692.5 L 565.25 692.786 L 575 693.072 L 575 647.536 L 575 602 L 565 602 L 555 602 L 555 621.023 L 555 640.046 L 537.414 639.773 L 519.829 639.5 L 519.953 620.75 L 520.078 602 L 510.039 602 L 500 602 L 500 647.5 M 597.255 633.75 C 597.512 653.919 598.079 666.782 598.811 669.014 C 604.225 685.522 618.039 694.461 638 694.372 C 652.454 694.307 662.835 689.482 670.696 679.177 C 676.761 671.224 677.272 667.904 677.755 633.25 L 678.191 602 L 668.096 602 L 658 602 L 657.978 631.75 C 657.954 664.841 657.627 666.771 651.111 672.253 C 643.23 678.885 629.494 678.428 622.363 671.296 C 616.673 665.606 616 661.22 616 629.818 L 616 602 L 606.426 602 L 596.851 602 L 597.255 633.75 M 701 647.562 L 701 693.125 L 726.25 692.812 C 750.133 692.517 751.771 692.375 756.5 690.199 C 766.758 685.478 771.94 677.86 771.978 667.446 C 772.005 659.896 768.541 652.382 763.201 648.41 C 761.166 646.896 759.306 645.502 759.068 645.313 C 758.831 645.125 760.018 643.514 761.706 641.735 C 771.293 631.632 771.037 617.714 761.1 608.78 C 758.407 606.359 754.418 603.843 752.236 603.189 C 749.656 602.416 740 602 724.634 602 L 701 602 L 701 647.562 M 720 628.5 L 720 638 L 730.75 637.998 C 738.989 637.997 742.312 637.589 744.978 636.248 C 750.592 633.426 751.613 625.613 746.975 620.975 C 745.219 619.219 743.613 619 732.5 619 L 720 619 L 720 628.5 M 720 665.1 L 720 676.201 L 732.75 675.828 C 746.633 675.421 749.091 674.609 751.099 669.761 C 752.413 666.589 751.735 660.591 749.798 658.256 C 747.199 655.121 742.255 654 731.032 654 L 720 654 L 720 665.1 M 343.718 729.028 C 335.252 731.164 328.266 736.668 324.195 744.41 C 321.868 748.835 321.518 750.676 321.518 758.5 C 321.518 766.344 321.865 768.16 324.219 772.638 C 329.604 782.881 338.693 788 351.497 788 C 361.198 788 367.718 785.881 373.397 780.881 C 377.965 776.861 378.04 776.702 376.293 774.769 C 375.307 773.677 373.228 771.878 371.674 770.77 L 368.848 768.755 L 365.674 771.816 C 361.621 775.725 358.158 777.004 351.685 776.984 C 341.169 776.95 334 769.378 334 758.303 C 334 749.7 337.842 743.635 345.254 740.538 C 351.964 737.735 360.436 739.242 365.684 744.173 L 367.896 746.251 L 371.948 743.041 C 374.177 741.276 376 739.504 376 739.103 C 376 737.721 370.489 733.215 366.119 731.023 C 361.113 728.512 349.768 727.502 343.718 729.028 M 400 758.28 L 400 787.56 L 419.5 787.614 L 439 787.668 L 439 781.834 L 439 776 L 425.5 776 L 412 776 L 412 770 L 412 764 L 423.5 764 L 435 764 L 435 759 L 435 754 L 423.5 754 L 412 754 L 412 747 L 412 740 L 425.5 740 L 439 740 L 439 734.5 L 439 729 L 419.5 729 L 400 729 L 400 758.28 M 461.235 758.25 L 461.5 787.5 L 467 787.625 L 472.5 787.749 L 473 768.225 L 473.5 748.701 L 487.418 768.363 L 501.337 788.025 L 507.668 787.796 L 514 787.567 L 514 758.283 L 514 729 L 508.022 729 L 502.043 729 L 501.772 748.121 L 501.5 767.241 L 488 748.165 L 474.5 729.089 L 467.735 729.045 L 460.97 729 L 461.235 758.25 M 534 734.5 L 534 740 L 543.033 740 L 552.065 740 L 551.961 763.75 L 551.857 787.5 L 557.679 787.5 L 563.5 787.5 L 563.768 763.75 L 564.036 740 L 573.018 740 L 582 740 L 582 734.5 L 582 729 L 558 729 L 534 729 L 534 734.5 M 602 758.414 L 602 787.827 L 621.5 787.664 L 641 787.5 L 641 781.75 L 641 776 L 627.45 776 L 613.9 776 L 614.2 770.25 L 614.5 764.5 L 625.75 764.217 L 637 763.934 L 637 758.967 L 637 754 L 625.5 754 L 614 754 L 614 747 L 614 740 L 627.5 740 L 641 740 L 641 734.5 L 641 729 L 621.5 729 L 602 729 L 602 758.414 M 664 758.5 L 664 788 L 670 788 L 676 788 L 676 778 L 676 768 L 680.25 768.005 L 684.5 768.011 L 689.818 778.005 L 695.136 788 L 701.568 788 C 705.106 788 708 787.7 708 787.334 C 708 786.968 705.57 782.117 702.599 776.555 L 697.198 766.441 L 700.567 764.232 C 709.566 758.333 710.364 742.854 702.078 734.963 C 696.951 730.081 692.428 729 677.134 729 L 664 729 L 664 758.5 M 676 749.106 L 676 758.212 L 683.97 757.85 C 693.197 757.431 694.877 756.333 695.702 750.186 C 696.184 746.592 695.881 745.727 693.202 743.048 C 690.379 740.225 689.632 740 683.077 740 L 676 740 L 676 749.106" stroke-linecap="round" />
</g>
</g>
</g>
</svg>