<svg xmlns="http://www.w3.org/2000/svg" width="524" height="436" viewBox="0 0 524 436" version="1.1"><path d="M 1.202 1.198 L 0 2.400 0 219.202 L 0 436.004 262.250 435.752 L 524.500 435.500 524.500 218 L 524.500 0.500 263.452 0.248 L 2.404 -0.004 1.202 1.198 M 0.491 219 C 0.491 338.625, 0.608 387.563, 0.750 327.750 C 0.892 267.938, 0.892 170.063, 0.750 110.250 C 0.608 50.438, 0.491 99.375, 0.491 219 M 117.573 73.219 C 116.863 73.616, 114.981 73.907, 113.391 73.864 C 111.801 73.821, 107.125 74.366, 103 75.074 L 95.500 76.362 98 77.081 L 100.500 77.801 97.444 77.900 C 95.763 77.955, 91.488 78.940, 87.944 80.089 C 84.400 81.238, 78.800 83.501, 75.500 85.119 C 72.200 86.736, 67.250 89.382, 64.500 90.999 C 61.750 92.616, 58.835 94.265, 58.022 94.664 C 57.209 95.063, 55.583 96.426, 54.407 97.694 C 53.232 98.963, 51.814 100, 51.256 100 C 50.698 100, 48.663 101.800, 46.735 104 L 43.228 108 41.673 108 C 40.818 108, 39.767 108.563, 39.337 109.250 C 38.908 109.938, 38.485 110.963, 38.399 111.529 C 38.313 112.095, 36.725 114.177, 34.871 116.156 C 33.017 118.134, 31.050 120.371, 30.500 121.127 C 29.950 121.882, 28.861 123.737, 28.081 125.250 L 26.662 128 25.331 128 C 24.599 128, 24 128.459, 24 129.021 C 24 129.583, 22.538 133.070, 20.750 136.771 C 18.963 140.472, 17.163 143.650, 16.750 143.833 C 16.338 144.017, 16 145.164, 16 146.383 C 16 147.603, 15.631 149.028, 15.180 149.550 C 14.729 150.073, 13.392 153.650, 12.209 157.500 C 11.026 161.350, 9.596 166.881, 9.031 169.790 C 8.466 172.700, 7.769 181.025, 7.481 188.290 C 7.194 195.556, 6.794 204.875, 6.594 209 L 6.229 216.500 7.077 213.500 L 7.926 210.500 7.541 216.932 L 7.157 223.365 7.999 222.002 L 8.842 220.638 9.516 224.232 C 9.887 226.209, 9.926 228.878, 9.604 230.163 L 9.018 232.500 9.650 231.077 L 10.282 229.653 13.025 238.911 C 14.534 244.003, 16.271 248.671, 16.884 249.284 C 17.498 249.898, 18 251.660, 18 253.200 L 18 256 19 256 C 19.550 256, 20 256.590, 20 257.311 C 20 258.033, 20.900 259.589, 22 260.770 C 23.100 261.950, 24 263.385, 24 263.958 C 24 264.531, 24.450 265, 25 265 C 25.550 265, 26 265.675, 26 266.500 L 26 268 27.167 268 L 28.333 268 27.680 268.654 L 27.026 269.308 32.513 275.557 C 35.531 278.995, 38 282.247, 38 282.785 C 38 283.323, 39.435 285.166, 41.190 286.881 C 42.944 288.597, 44.789 290, 45.289 290 C 45.789 290, 47.433 291.238, 48.943 292.750 C 50.453 294.262, 54.346 297.362, 57.594 299.638 C 60.842 301.913, 65.300 304.786, 67.500 306.021 C 69.700 307.256, 74.031 309.556, 77.124 311.133 C 80.217 312.710, 83.389 314, 84.174 314 C 84.958 314, 86.027 314.372, 86.550 314.826 C 87.072 315.280, 89.412 316.253, 91.750 316.986 C 94.088 317.720, 96.001 318.586, 96.002 318.910 C 96.003 319.235, 98.457 319.586, 101.456 319.690 C 104.455 319.795, 107.789 320.352, 108.865 320.928 C 109.941 321.503, 114.714 322.274, 119.473 322.640 C 124.232 323.005, 127.692 323.574, 127.162 323.902 C 126.632 324.231, 130.864 324.500, 136.567 324.500 L 146.934 324.500 145.227 323.903 L 143.521 323.306 151.010 322.577 C 155.130 322.177, 162.775 320.728, 168 319.358 C 173.225 317.988, 179.525 315.837, 182 314.578 C 184.475 313.318, 189.538 310.724, 193.251 308.812 L 200.002 305.335 199.334 304.668 L 198.667 304 199.980 304 C 200.703 304, 203.242 302.404, 205.622 300.453 C 208.003 298.503, 210.556 296.301, 211.296 295.561 C 212.036 294.821, 213.510 294.047, 214.571 293.841 L 216.500 293.467 216.518 291.943 C 216.527 291.105, 218.102 288.499, 220.018 286.153 C 221.933 283.806, 224.738 280.514, 226.250 278.837 C 227.762 277.161, 229 275.161, 229 274.394 L 229 273 230.750 272.985 L 232.500 272.969 231.203 272.146 L 229.905 271.323 231.453 270.039 C 232.304 269.333, 233 267.937, 233 266.937 C 233 265.936, 233.408 264.866, 233.907 264.558 L 234.813 263.997 234.275 266.058 L 233.736 268.118 235.868 268.676 L 238 269.233 237.985 291.867 L 237.969 314.500 237 313 L 236.031 311.500 236.015 321.250 L 236 331 237 331 L 238 331 237.985 333.250 L 237.969 335.500 237 334 L 236.031 332.500 236.015 334.250 C 236.007 335.212, 236.450 336, 237 336 L 238 336 237.968 339.250 C 237.951 341.038, 237.386 343.222, 236.714 344.104 C 236.042 344.987, 234.435 346.045, 233.143 346.455 C 231.851 346.865, 229.176 348.298, 227.200 349.639 C 225.223 350.981, 223.504 352.775, 223.379 353.627 C 223.254 354.479, 222.410 355.995, 221.504 356.996 C 220.598 357.997, 218.539 362.054, 216.928 366.012 L 214 373.207 214 376.738 C 214 378.679, 214.526 382.120, 215.169 384.384 C 215.811 386.648, 216.711 388.927, 217.169 389.450 C 217.626 389.972, 218 391.210, 218 392.200 C 218 393.190, 218.420 394, 218.933 394 C 219.446 394, 220.164 394.942, 220.530 396.093 C 220.895 397.245, 223.060 399.945, 225.342 402.093 C 227.623 404.242, 229.829 406, 230.245 406 C 230.660 406, 231 406.702, 231 407.559 L 231 409.118 232 408.500 L 233 407.882 233 409.058 L 233 410.233 235 409.710 L 237 409.187 237 410.702 L 237 412.217 239.439 411.605 L 241.877 410.993 242.471 411.953 L 243.064 412.913 244.431 412.388 L 245.798 411.864 246.458 412.932 L 247.118 414 251.309 413.985 L 255.500 413.969 254 412.900 L 252.500 411.832 255.750 412.391 L 259 412.950 259 411.868 L 259 410.786 260.474 411.351 L 261.947 411.917 262.724 410.693 C 263.151 410.020, 265.407 408.576, 267.739 407.484 C 270.070 406.393, 271.982 405.163, 271.989 404.750 C 271.995 404.337, 272.645 404, 273.433 404 L 274.865 404 275.500 402 L 276.135 400 278.067 400 L 280 400 280 398.346 C 280 397.437, 281.205 394.175, 282.677 391.096 L 285.354 385.500 285.665 378.088 L 285.976 370.677 285.168 369.588 C 284.724 368.990, 283.757 366.588, 283.020 364.250 C 282.283 361.913, 281.302 360, 280.840 360 C 280.378 360, 280 359.428, 280 358.728 C 280 358.028, 278.610 355.769, 276.910 353.707 C 275.211 351.645, 272.515 349.284, 270.920 348.459 C 269.326 347.634, 267.696 347.002, 267.300 347.054 C 266.903 347.106, 266.255 346.327, 265.859 345.324 L 265.141 343.500 264.830 266.500 L 264.519 189.500 264 267 L 263.481 344.500 263.241 266.250 L 263 188 207.750 188.015 L 152.500 188.031 151.231 188.836 L 149.962 189.642 150.231 212.571 L 150.500 235.500 177.750 235.766 L 205 236.032 205.032 234.766 L 205.064 233.500 206.489 235.383 L 207.914 237.265 206.521 239.960 C 205.754 241.442, 202.787 245.007, 199.927 247.882 L 194.727 253.109 193.243 252.540 L 191.759 251.970 192.286 253.987 L 192.813 256.003 191.900 255.438 L 190.986 254.873 190.386 256.437 C 190.056 257.296, 189.207 258, 188.500 258 C 187.793 258, 186.930 258.739, 186.583 259.643 C 186.237 260.547, 185.677 261.010, 185.339 260.673 C 185.002 260.335, 183.480 260.946, 181.959 262.030 C 180.437 263.113, 178.767 264, 178.249 264 C 177.731 264, 175.776 264.780, 173.904 265.733 C 172.032 266.687, 168.925 268.030, 167 268.718 C 165.075 269.407, 162.713 269.977, 161.750 269.985 C 160.787 269.993, 160 270.337, 160 270.750 C 160 271.163, 158.537 271.547, 156.750 271.604 C 154.963 271.662, 148.550 272.047, 142.500 272.462 L 131.500 273.215 119.463 271.227 L 107.426 269.240 100.463 265.708 C 96.633 263.765, 91.813 260.673, 89.751 258.838 C 87.689 257.002, 84.882 254.600, 83.512 253.500 L 81.021 251.500 81.010 249.725 L 81 247.950 78.729 247.087 L 76.458 246.223 74.980 243.362 C 74.168 241.788, 73.233 240.275, 72.903 240 C 72.573 239.725, 70.885 236.511, 69.151 232.857 C 67.418 229.203, 66 225.491, 66 224.607 C 66 223.723, 65.646 223, 65.214 223 C 64.782 223, 64.383 222.213, 64.327 221.250 C 64.270 220.287, 64.092 218.150, 63.931 216.500 C 63.769 214.850, 63.268 213.003, 62.818 212.396 C 62.367 211.789, 61.968 210.214, 61.931 208.896 C 61.893 207.578, 61.636 202.310, 61.359 197.190 L 60.855 187.880 61.886 186.638 L 62.916 185.396 62.340 183.193 L 61.764 180.989 62.968 179.538 L 64.172 178.088 63.527 177.044 L 62.882 176 63.847 176 L 64.813 176 64.290 174 L 63.767 172 65.383 172 L 67 172 66.985 169.750 L 66.969 167.500 66 169 C 65.467 169.825, 65.024 170.175, 65.015 169.777 C 65.007 169.380, 66.219 166.455, 67.710 163.277 C 69.200 160.100, 70.775 157.350, 71.210 157.167 C 71.644 156.983, 72 156.218, 72 155.466 C 72 154.714, 75.134 150.890, 78.963 146.968 L 85.927 139.837 86.963 140.477 L 88 141.118 88 139.534 L 88 137.950 90.500 137 C 91.875 136.477, 93 135.588, 93 135.025 L 93 134 94.917 134 C 95.971 134, 96.983 133.662, 97.167 133.250 C 97.350 132.838, 99.525 131.536, 102 130.358 C 104.475 129.180, 108.730 127.419, 111.457 126.446 L 116.413 124.677 122.207 124.598 L 128 124.519 128 123.662 L 128 122.804 135.250 123.367 C 139.238 123.676, 143.764 123.945, 145.309 123.965 L 148.118 124 147.605 124.830 L 147.092 125.661 151.937 125.771 L 156.783 125.882 163.596 128.971 C 167.343 130.670, 171.238 132.811, 172.252 133.728 C 173.266 134.646, 174.862 135.508, 175.798 135.643 C 176.734 135.779, 178.117 136.814, 178.872 137.945 C 179.627 139.075, 180.864 140, 181.622 140 C 182.380 140, 183 140.450, 183 141 C 183 141.550, 183.620 142, 184.378 142 C 185.135 142, 186.275 142.626, 186.910 143.392 C 187.546 144.157, 188.909 145.005, 189.941 145.274 L 191.816 145.765 197.959 139.882 C 201.338 136.647, 204.378 134, 204.714 134 C 205.050 134, 208.619 130.542, 212.644 126.315 L 219.964 118.631 220.617 119.283 L 221.269 119.936 224.094 116.382 L 226.918 112.828 224.681 110.664 C 223.450 109.474, 221.169 106.944, 219.612 105.042 C 218.054 103.141, 216.184 101.497, 215.455 101.390 C 214.726 101.283, 212.525 99.592, 210.565 97.631 L 207 94.067 207 95.224 L 207 96.382 205.750 94.718 C 205.063 93.803, 201.125 91.221, 197 88.979 C 192.875 86.738, 188.713 84.648, 187.750 84.336 C 186.787 84.023, 186 83.369, 186 82.883 C 186 82.398, 185.190 82, 184.200 82 C 183.210 82, 181.972 81.589, 181.450 81.086 C 180.927 80.584, 179.375 80.022, 178 79.836 C 176.625 79.651, 174.905 78.938, 174.179 78.250 C 173.452 77.563, 171.791 77, 170.488 77 C 169.184 77, 167.816 76.511, 167.446 75.913 L 166.774 74.826 164.844 75.331 C 163.782 75.608, 161.470 75.380, 159.707 74.824 C 157.943 74.268, 155.150 73.650, 153.500 73.451 C 151.850 73.252, 148.974 72.784, 147.108 72.410 L 143.716 71.731 144.377 72.801 L 145.039 73.871 141.817 72.948 L 138.596 72.024 128.731 72.260 C 123.304 72.390, 118.284 72.821, 117.573 73.219 M 409.336 73 C 409.060 73.275, 408.421 73.556, 407.917 73.625 C 407.413 73.694, 404.863 73.813, 402.250 73.890 L 397.500 74.031 399 75.014 L 400.500 75.997 397.281 75.380 L 394.062 74.762 392.281 75.535 C 391.301 75.959, 390.050 76.375, 389.500 76.458 C 388.950 76.541, 387.233 77.147, 385.685 77.805 C 384.137 78.462, 382.279 79, 381.557 79 C 380.835 79, 379.730 79.621, 379.100 80.379 C 378.470 81.138, 376.728 82.016, 375.228 82.330 C 373.727 82.644, 368.225 85.447, 363 88.559 C 357.775 91.671, 353.350 94.618, 353.167 95.109 C 352.983 95.599, 352.266 96, 351.572 96 C 350.878 96, 349.495 96.900, 348.500 98 C 347.505 99.100, 346.085 100, 345.345 100 C 344.605 100, 344 100.374, 344 100.830 C 344 101.287, 341.861 103.987, 339.247 106.830 C 336.633 109.674, 333.907 112, 333.188 112 L 331.882 112 332.451 112.920 L 333.019 113.840 330.760 115.701 C 329.517 116.725, 327.524 119.349, 326.331 121.532 C 325.137 123.714, 322.688 128.313, 320.888 131.750 C 319.088 135.188, 317.252 138, 316.808 138 C 316.363 138, 316 139.035, 316 140.300 C 316 141.565, 315.618 143.028, 315.150 143.550 C 314.683 144.073, 313.252 147.875, 311.970 152 C 310.689 156.125, 309.383 159.725, 309.070 160 C 308.756 160.275, 308.392 161.400, 308.261 162.500 C 308.129 163.600, 307.763 166.952, 307.447 169.949 C 307.131 172.945, 306.605 175.830, 306.278 176.359 C 305.951 176.888, 305.778 179.949, 305.894 183.161 L 306.105 189 305.052 189 L 304 189 304 193.500 L 304 198 304.995 198 L 305.990 198 305.614 205.514 L 305.237 213.029 306.145 213.590 C 306.644 213.898, 307.014 215.579, 306.966 217.325 C 306.918 219.071, 307.595 223.425, 308.469 227 C 309.344 230.575, 310.329 235.178, 310.659 237.229 L 311.258 240.959 312.066 240.459 L 312.875 239.959 312.430 242.416 L 311.984 244.872 313.008 245.505 L 314.033 246.138 313.457 247.069 L 312.882 248 314.441 248 L 316 248 316.022 250.250 C 316.034 251.488, 316.924 253.625, 318 255 C 319.076 256.375, 319.966 258.288, 319.978 259.250 C 319.990 260.212, 320.450 261, 321 261 C 321.550 261, 322 261.681, 322 262.514 C 322 263.346, 322.563 265.034, 323.250 266.264 C 323.938 267.494, 324.726 268.725, 325.002 269 C 325.277 269.275, 326.170 270.791, 326.984 272.369 C 327.799 273.947, 329.478 276.197, 330.715 277.369 C 331.953 278.541, 332.973 279.769, 332.983 280.099 C 332.992 280.428, 336.547 284.297, 340.881 288.696 C 345.216 293.096, 349.491 296.974, 350.381 297.316 C 351.272 297.658, 352 298.401, 352 298.969 C 352 299.536, 352.509 300, 353.131 300 C 353.752 300, 356.340 301.473, 358.881 303.272 C 361.421 305.072, 365.413 307.390, 367.750 308.424 L 372 310.304 372 311.641 L 372 312.978 374.250 312.806 C 375.488 312.711, 378.075 313.333, 380 314.187 C 381.925 315.042, 385.525 316.301, 388 316.986 C 390.475 317.671, 393.625 318.603, 395 319.056 C 396.375 319.509, 399.863 320.174, 402.751 320.534 L 408.002 321.188 407.557 321.908 L 407.112 322.627 424.849 322.501 C 434.604 322.431, 443.090 322.062, 443.707 321.681 L 444.829 320.988 445.338 322.244 L 445.848 323.500 446.849 322.062 L 447.851 320.623 456.454 318.845 C 461.186 317.867, 466.732 316.341, 468.779 315.454 C 470.825 314.567, 476.325 311.984, 481 309.715 C 485.675 307.445, 490.372 304.781, 491.439 303.794 C 492.505 302.807, 493.767 302, 494.243 302 C 494.719 302, 496.547 300.652, 498.304 299.005 L 501.500 296.009 503.250 296.005 C 504.212 296.002, 505 295.582, 505 295.071 C 505 294.560, 506.616 292.429, 508.592 290.334 C 510.567 288.239, 512.563 285.816, 513.027 284.949 L 513.871 283.372 510.311 279.186 C 508.353 276.884, 506.132 275, 505.375 275 L 504 275 504 273.500 C 504 272.675, 503.506 272, 502.901 272 C 502.297 272, 500.497 270.602, 498.901 268.894 C 497.306 267.186, 496 265.386, 496 264.894 C 496 264.402, 495.211 264, 494.247 264 L 492.494 264 489.904 261.250 C 488.480 259.738, 485.489 256.387, 483.257 253.804 L 479.199 249.108 477.362 251.554 L 475.525 254 473.513 254.079 L 471.500 254.158 472.761 254.666 L 474.022 255.174 470.467 257.587 C 468.511 258.914, 466.256 260, 465.456 260 C 464.655 260, 464 260.406, 464 260.901 C 464 261.397, 462.538 262.653, 460.750 263.692 C 458.962 264.731, 455.025 266.375, 452 267.346 C 448.975 268.317, 442.900 269.519, 438.500 270.018 C 434.100 270.516, 428.364 271.057, 425.752 271.219 L 421.005 271.514 420.749 270.746 C 420.608 270.324, 418.357 269.885, 415.746 269.772 C 413.136 269.658, 411 269.213, 411 268.783 C 411 268.352, 409.740 268, 408.199 268 C 406.659 268, 404.188 267.438, 402.707 266.750 C 401.227 266.063, 400.012 265.163, 400.008 264.750 C 400.004 264.337, 399.095 264, 397.989 264 L 395.977 264 389.989 259.912 L 384 255.824 384 254.412 C 384 253.635, 383.663 252.993, 383.250 252.984 C 382.837 252.975, 381.038 251.678, 379.250 250.102 C 377.462 248.526, 376 246.749, 376 246.153 C 376 245.558, 375.100 244.589, 374 244 C 372.900 243.411, 372 242.452, 372 241.869 C 372 241.286, 371.178 239.614, 370.174 238.154 C 369.170 236.694, 366.957 232.125, 365.257 228 C 363.557 223.875, 361.566 217.800, 360.833 214.500 L 359.500 208.500 359.564 195.500 L 359.629 182.500 361.912 174.587 C 363.168 170.235, 365.577 163.935, 367.264 160.587 C 368.952 157.239, 370.597 154.275, 370.919 154 C 371.242 153.725, 372.740 151.679, 374.248 149.453 C 375.756 147.228, 378.975 143.515, 381.401 141.203 C 383.826 138.891, 386.255 137, 386.798 137 C 387.342 137, 388.045 136.325, 388.362 135.500 C 388.678 134.675, 389.626 134, 390.469 134 C 391.311 134, 392 133.627, 392 133.171 C 392 132.715, 394.363 131.306, 397.250 130.040 C 400.137 128.774, 403.400 127.387, 404.500 126.958 C 405.600 126.528, 409.163 125.687, 412.417 125.088 C 415.671 124.490, 421.611 124, 425.618 124 C 429.624 124, 435.286 124.469, 438.201 125.042 C 441.115 125.614, 445.975 126.812, 449 127.703 C 452.025 128.593, 455.175 129.670, 456 130.096 C 456.825 130.521, 458.962 131.458, 460.750 132.179 C 462.538 132.899, 464 133.997, 464 134.619 L 464 135.750 466.879 136.326 C 468.463 136.643, 470.456 137.599, 471.308 138.451 C 472.160 139.303, 473.291 140, 473.822 140 C 474.352 140, 475.070 140.739, 475.417 141.643 C 475.763 142.547, 476.315 143.018, 476.643 142.691 C 476.970 142.363, 477.892 142.749, 478.690 143.548 C 479.489 144.346, 480.720 145, 481.425 145 C 482.131 145, 483.922 143.875, 485.405 142.500 C 486.889 141.125, 488.755 140, 489.552 140 C 490.348 140, 491 139.565, 491 139.034 C 491 138.502, 492.459 136.477, 494.243 134.534 C 496.027 132.590, 498.061 131, 498.765 131 C 499.468 131, 500.533 129.924, 501.132 128.610 C 501.731 127.295, 503.409 125.616, 504.860 124.878 C 506.312 124.139, 509.075 121.898, 511 119.897 C 512.925 117.896, 515.298 115.985, 516.274 115.651 C 517.250 115.317, 518.431 114.022, 518.898 112.772 L 519.748 110.500 518.979 110 C 518.557 109.725, 515.615 107.250, 512.444 104.500 C 509.272 101.750, 505.737 98.600, 504.588 97.500 C 503.440 96.400, 502.275 95.484, 502 95.465 C 501.725 95.445, 500.547 94.898, 499.381 94.250 C 498.216 93.601, 496.979 93.355, 496.631 93.702 C 496.284 94.049, 496 93.874, 496 93.311 C 496 92.749, 492.063 90.316, 487.250 87.904 C 482.438 85.492, 478.350 83.177, 478.167 82.759 C 477.983 82.342, 477.061 82, 476.117 82 C 475.172 82, 473.939 81.539, 473.376 80.976 C 472.813 80.413, 470.698 79.890, 468.676 79.814 C 466.654 79.738, 465 79.337, 465 78.923 C 465 78.509, 461.512 77.409, 457.250 76.478 C 452.988 75.547, 448.493 74.396, 447.262 73.920 C 446.031 73.443, 444.365 73.306, 443.560 73.615 C 442.755 73.924, 441.512 73.813, 440.798 73.368 L 439.500 72.560 424.669 72.530 C 416.513 72.513, 409.613 72.725, 409.336 73 M 103 76.500 C 103 76.775, 103.225 77, 103.500 77 C 103.775 77, 104 76.775, 104 76.500 C 104 76.225, 103.775 76, 103.500 76 C 103.225 76, 103 76.225, 103 76.500 M 498 95.500 C 498 95.775, 498.225 96, 498.500 96 C 498.775 96, 499 95.775, 499 95.500 C 499 95.225, 498.775 95, 498.500 95 C 498.225 95, 498 95.225, 498 95.500 M 329 119.500 C 329 119.775, 329.225 120, 329.500 120 C 329.775 120, 330 119.775, 330 119.500 C 330 119.225, 329.775 119, 329.500 119 C 329.225 119, 329 119.225, 329 119.500 M 11 163.500 C 11 163.775, 11.225 164, 11.500 164 C 11.775 164, 12 163.775, 12 163.500 C 12 163.225, 11.775 163, 11.500 163 C 11.225 163, 11 163.225, 11 163.500 M 309 215.500 C 309 215.775, 309.225 216, 309.500 216 C 309.775 216, 310 215.775, 310 215.500 C 310 215.225, 309.775 215, 309.500 215 C 309.225 215, 309 215.225, 309 215.500 M 8 224.500 C 8 224.775, 8.225 225, 8.500 225 C 8.775 225, 9 224.775, 9 224.500 C 9 224.225, 8.775 224, 8.500 224 C 8.225 224, 8 224.225, 8 224.500 M 315 246.500 C 315 246.775, 315.225 247, 315.500 247 C 315.775 247, 316 246.775, 316 246.500 C 316 246.225, 315.775 246, 315.500 246 C 315.225 246, 315 246.225, 315 246.500 M 237 264.500 C 237 264.775, 237.225 265, 237.500 265 C 237.775 265, 238 264.775, 238 264.500 C 238 264.225, 237.775 264, 237.500 264 C 237.225 264, 237 264.225, 237 264.500 M 408 269.500 C 408 269.775, 408.225 270, 408.500 270 C 408.775 270, 409 269.775, 409 269.500 C 409 269.225, 408.775 269, 408.500 269 C 408.225 269, 408 269.225, 408 269.500 M 112 271.500 C 112 271.775, 112.225 272, 112.500 272 C 112.775 272, 113 271.775, 113 271.500 C 113 271.225, 112.775 271, 112.500 271 C 112.225 271, 112 271.225, 112 271.500 M 417.333 271.667 L 418 272.333 418.667 271.667 L 419.333 271 418 271 L 416.667 271 417.333 271.667 M 438 271.500 C 438 271.775, 438.225 272, 438.500 272 C 438.775 272, 439 271.775, 439 271.500 C 439 271.225, 438.775 271, 438.500 271 C 438.225 271, 438 271.225, 438 271.500 M 148.813 273.683 C 149.534 273.972, 150.397 273.936, 150.729 273.604 C 151.061 273.272, 150.471 273.036, 149.417 273.079 L 147.500 273.158 148.813 273.683 M 237.320 322 L 237.320 328.500 237.723 325.250 C 237.945 323.462, 237.945 320.538, 237.723 318.750 L 237.320 315.500 237.320 322 M 400 321.500 C 400 321.775, 400.225 322, 400.500 322 C 400.775 322, 401 321.775, 401 321.500 C 401 321.225, 400.775 321, 400.500 321 C 400.225 321, 400 321.225, 400 321.500 M 436 324 C 436 324.550, 436.337 324.993, 436.750 324.985 C 437.163 324.976, 438.175 324.533, 439 324 L 440.500 323.031 438.250 323.015 L 436 323 436 324 M 432.333 324.667 L 433 325.333 433.667 324.667 L 434.333 324 433 324 L 431.667 324 432.333 324.667 M 227 351.500 C 227 351.775, 227.225 352, 227.500 352 C 227.775 352, 228 351.775, 228 351.500 C 228 351.225, 227.775 351, 227.500 351 C 227.225 351, 227 351.225, 227 351.500 M 247 361.500 C 247 361.775, 247.225 362, 247.500 362 C 247.775 362, 248 361.775, 248 361.500 C 248 361.225, 247.775 361, 247.500 361 C 247.225 361, 247 361.225, 247 361.500 M 252 361.500 C 252 361.775, 252.225 362, 252.500 362 C 252.775 362, 253 361.775, 253 361.500 C 253 361.225, 252.775 361, 252.500 361 C 252.225 361, 252 361.225, 252 361.500 M 247.654 364.250 C 247.909 364.663, 249.779 365.036, 251.809 365.079 C 253.839 365.122, 255.050 365.310, 254.500 365.496 C 253.950 365.682, 251.302 366.048, 248.615 366.310 L 243.730 366.785 245.115 365.908 L 246.500 365.031 245.443 365.015 C 244.861 365.007, 242.949 366.190, 241.193 367.645 L 238 370.290 238 376.045 L 238 381.800 241.600 385.400 L 245.200 389 247.541 389 C 248.829 389, 250.129 389.399, 250.430 389.887 L 250.978 390.774 255.091 389.357 C 257.352 388.578, 259.761 387.382, 260.444 386.699 C 261.126 386.017, 262.203 384.489, 262.838 383.303 L 263.991 381.148 263.834 377.128 C 263.747 374.917, 263.412 373.184, 263.088 373.276 C 262.765 373.369, 261.038 371.960, 259.250 370.146 C 257.462 368.331, 256 366.251, 256 365.524 L 256 364.201 251.595 363.851 L 247.191 363.500 247.654 364.250 M 240 364.500 C 240 364.775, 240.225 365, 240.500 365 C 240.775 365, 241 364.775, 241 364.500 C 241 364.225, 240.775 364, 240.500 364 C 240.225 364, 240 364.225, 240 364.500 M 260.500 369 C 260.840 369.550, 261.343 370, 261.618 370 C 261.893 370, 261.840 369.550, 261.500 369 C 261.160 368.450, 260.657 368, 260.382 368 C 260.107 368, 260.160 368.450, 260.500 369 M 262 371.500 C 262 371.775, 262.225 372, 262.500 372 C 262.775 372, 263 371.775, 263 371.500 C 263 371.225, 262.775 371, 262.500 371 C 262.225 371, 262 371.225, 262 371.500 M 236 377 L 236 378.333 236.667 377.667 L 237.333 377 236.667 376.333 L 236 375.667 236 377 M 240 387 C 240 387.550, 240.477 388, 241.059 388 L 242.118 388 241.500 387 C 241.160 386.450, 240.684 386, 240.441 386 C 240.198 386, 240 386.450, 240 387 M 240 389.500 C 240 389.775, 240.225 390, 240.500 390 C 240.775 390, 241 389.775, 241 389.500 C 241 389.225, 240.775 389, 240.500 389 C 240.225 389, 240 389.225, 240 389.500 M 244 390.500 C 244 390.775, 244.225 391, 244.500 391 C 244.775 391, 245 390.775, 245 390.500 C 245 390.225, 244.775 390, 244.500 390 C 244.225 390, 244 390.225, 244 390.500 M 247.500 391 C 247.840 391.550, 248.343 392, 248.618 392 C 248.893 392, 248.840 391.550, 248.500 391 C 248.160 390.450, 247.657 390, 247.382 390 C 247.107 390, 247.160 390.450, 247.500 391 M 255 390.500 C 255 390.775, 255.225 391, 255.500 391 C 255.775 391, 256 390.775, 256 390.500 C 256 390.225, 255.775 390, 255.500 390 C 255.225 390, 255 390.225, 255 390.500" stroke="none" fill="#080c17" fill-rule="evenodd"/><path d="M -0 1.059 L -0 2.118 1 1.500 C 1.550 1.160, 2 0.684, 2 0.441 C 2 0.198, 1.550 0, 1 0 C 0.450 0, -0 0.477, -0 1.059 M 117.573 73.219 C 116.863 73.616, 114.981 73.907, 113.391 73.864 C 111.801 73.821, 107.125 74.366, 103 75.074 L 95.500 76.362 98 77.081 L 100.500 77.801 97.444 77.900 C 95.763 77.955, 91.488 78.940, 87.944 80.089 C 84.400 81.238, 78.800 83.501, 75.500 85.119 C 72.200 86.736, 67.250 89.382, 64.500 90.999 C 61.750 92.616, 58.835 94.265, 58.022 94.664 C 57.209 95.063, 55.583 96.426, 54.407 97.694 C 53.232 98.963, 51.814 100, 51.256 100 C 50.698 100, 48.663 101.800, 46.735 104 L 43.228 108 41.673 108 C 40.818 108, 39.767 108.563, 39.337 109.250 C 38.908 109.938, 38.485 110.963, 38.399 111.529 C 38.313 112.095, 36.725 114.177, 34.871 116.156 C 33.017 118.134, 31.050 120.371, 30.500 121.127 C 29.950 121.882, 28.861 123.737, 28.081 125.250 L 26.662 128 25.331 128 C 24.599 128, 24 128.459, 24 129.021 C 24 129.583, 22.538 133.070, 20.750 136.771 C 18.963 140.472, 17.163 143.650, 16.750 143.833 C 16.338 144.017, 16 145.164, 16 146.383 C 16 147.603, 15.631 149.028, 15.180 149.550 C 14.729 150.073, 13.392 153.650, 12.209 157.500 C 11.026 161.350, 9.596 166.881, 9.031 169.790 C 8.466 172.700, 7.769 181.025, 7.481 188.290 C 7.194 195.556, 6.794 204.875, 6.594 209 L 6.229 216.500 7.077 213.500 L 7.926 210.500 7.541 216.932 L 7.157 223.365 7.999 222.002 L 8.842 220.638 9.516 224.232 C 9.887 226.209, 9.926 228.878, 9.604 230.163 L 9.018 232.500 9.650 231.077 L 10.282 229.653 13.025 238.911 C 14.534 244.003, 16.271 248.671, 16.884 249.284 C 17.498 249.898, 18 251.660, 18 253.200 L 18 256 19 256 C 19.550 256, 20 256.590, 20 257.311 C 20 258.033, 20.900 259.589, 22 260.770 C 23.100 261.950, 24 263.385, 24 263.958 C 24 264.531, 24.450 265, 25 265 C 25.550 265, 26 265.675, 26 266.500 L 26 268 27.167 268 L 28.333 268 27.680 268.654 L 27.026 269.308 32.513 275.557 C 35.531 278.995, 38 282.247, 38 282.785 C 38 283.323, 39.435 285.166, 41.190 286.881 C 42.944 288.597, 44.789 290, 45.289 290 C 45.789 290, 47.433 291.238, 48.943 292.750 C 50.453 294.262, 54.346 297.362, 57.594 299.638 C 60.842 301.913, 65.300 304.786, 67.500 306.021 C 69.700 307.256, 74.031 309.556, 77.124 311.133 C 80.217 312.710, 83.389 314, 84.174 314 C 84.958 314, 86.027 314.372, 86.550 314.826 C 87.072 315.280, 89.412 316.253, 91.750 316.986 C 94.088 317.720, 96.001 318.586, 96.002 318.910 C 96.003 319.235, 98.457 319.586, 101.456 319.690 C 104.455 319.795, 107.789 320.352, 108.865 320.928 C 109.941 321.503, 114.714 322.274, 119.473 322.640 C 124.232 323.005, 127.692 323.574, 127.162 323.902 C 126.632 324.231, 130.864 324.500, 136.567 324.500 L 146.934 324.500 145.227 323.903 L 143.521 323.306 151.010 322.577 C 155.130 322.177, 162.775 320.728, 168 319.358 C 173.225 317.988, 179.525 315.837, 182 314.578 C 184.475 313.318, 189.538 310.724, 193.251 308.812 L 200.002 305.335 199.334 304.668 L 198.667 304 199.980 304 C 200.703 304, 203.242 302.404, 205.622 300.453 C 208.003 298.503, 210.556 296.301, 211.296 295.561 C 212.036 294.821, 213.510 294.047, 214.571 293.841 L 216.500 293.467 216.518 291.943 C 216.527 291.105, 218.102 288.499, 220.018 286.153 C 221.933 283.806, 224.738 280.514, 226.250 278.837 C 227.762 277.161, 229 275.161, 229 274.394 L 229 273 230.750 272.985 L 232.500 272.969 231.203 272.146 L 229.905 271.323 231.453 270.039 C 232.304 269.333, 233 267.937, 233 266.937 C 233 265.936, 233.408 264.866, 233.907 264.558 L 234.813 263.997 234.275 266.058 L 233.736 268.118 235.868 268.676 L 238 269.233 237.985 291.867 L 237.969 314.500 237 313 L 236.031 311.500 236.015 321.250 L 236 331 237 331 L 238 331 237.985 333.250 L 237.969 335.500 237 334 L 236.031 332.500 236.015 334.250 C 236.007 335.212, 236.450 336, 237 336 L 238 336 237.968 339.250 C 237.951 341.038, 237.386 343.222, 236.714 344.104 C 236.042 344.987, 234.435 346.045, 233.143 346.455 C 231.851 346.865, 229.176 348.298, 227.200 349.639 C 225.223 350.981, 223.504 352.775, 223.379 353.627 C 223.254 354.479, 222.410 355.995, 221.504 356.996 C 220.598 357.997, 218.539 362.054, 216.928 366.012 L 214 373.207 214 376.738 C 214 378.679, 214.526 382.120, 215.169 384.384 C 215.811 386.648, 216.711 388.927, 217.169 389.450 C 217.626 389.972, 218 391.210, 218 392.200 C 218 393.190, 218.420 394, 218.933 394 C 219.446 394, 220.164 394.942, 220.530 396.093 C 220.895 397.245, 223.060 399.945, 225.342 402.093 C 227.623 404.242, 229.829 406, 230.245 406 C 230.660 406, 231 406.702, 231 407.559 L 231 409.118 232 408.500 L 233 407.882 233 409.058 L 233 410.233 235 409.710 L 237 409.187 237 410.702 L 237 412.217 239.439 411.605 L 241.877 410.993 242.471 411.953 L 243.064 412.913 244.431 412.388 L 245.798 411.864 246.458 412.932 L 247.118 414 251.309 413.985 L 255.500 413.969 254 412.900 L 252.500 411.832 255.750 412.391 L 259 412.950 259 411.868 L 259 410.786 260.474 411.351 L 261.947 411.917 262.724 410.693 C 263.151 410.020, 265.407 408.576, 267.739 407.484 C 270.070 406.393, 271.982 405.163, 271.989 404.750 C 271.995 404.337, 272.645 404, 273.433 404 L 274.865 404 275.500 402 L 276.135 400 278.067 400 L 280 400 280 398.346 C 280 397.437, 281.205 394.175, 282.677 391.096 L 285.354 385.500 285.665 378.088 L 285.976 370.677 285.168 369.588 C 284.724 368.990, 283.757 366.588, 283.020 364.250 C 282.283 361.913, 281.302 360, 280.840 360 C 280.378 360, 280 359.428, 280 358.728 C 280 358.028, 278.610 355.769, 276.910 353.707 C 275.211 351.645, 272.515 349.284, 270.920 348.459 C 269.326 347.634, 267.696 347.002, 267.300 347.054 C 266.903 347.106, 266.255 346.327, 265.859 345.324 L 265.141 343.500 264.830 266.500 L 264.519 189.500 264 267 L 263.481 344.500 263.241 266.250 L 263 188 207.750 188.015 L 152.500 188.031 151.231 188.836 L 149.962 189.642 150.231 212.571 L 150.500 235.500 177.750 235.766 L 205 236.032 205.032 234.766 L 205.064 233.500 206.489 235.383 L 207.914 237.265 206.521 239.960 C 205.754 241.442, 202.787 245.007, 199.927 247.882 L 194.727 253.109 193.243 252.540 L 191.759 251.970 192.286 253.987 L 192.813 256.003 191.900 255.438 L 190.986 254.873 190.386 256.437 C 190.056 257.296, 189.207 258, 188.500 258 C 187.793 258, 186.930 258.739, 186.583 259.643 C 186.237 260.547, 185.677 261.010, 185.339 260.673 C 185.002 260.335, 183.480 260.946, 181.959 262.030 C 180.437 263.113, 178.767 264, 178.249 264 C 177.731 264, 175.776 264.780, 173.904 265.733 C 172.032 266.687, 168.925 268.030, 167 268.718 C 165.075 269.407, 162.713 269.977, 161.750 269.985 C 160.787 269.993, 160 270.337, 160 270.750 C 160 271.163, 158.537 271.547, 156.750 271.604 C 154.963 271.662, 148.550 272.047, 142.500 272.462 L 131.500 273.215 119.463 271.227 L 107.426 269.240 100.463 265.708 C 96.633 263.765, 91.813 260.673, 89.751 258.838 C 87.689 257.002, 84.882 254.600, 83.512 253.500 L 81.021 251.500 81.010 249.725 L 81 247.950 78.729 247.087 L 76.458 246.223 74.980 243.362 C 74.168 241.788, 73.233 240.275, 72.903 240 C 72.573 239.725, 70.885 236.511, 69.151 232.857 C 67.418 229.203, 66 225.491, 66 224.607 C 66 223.723, 65.646 223, 65.214 223 C 64.782 223, 64.383 222.213, 64.327 221.250 C 64.270 220.287, 64.092 218.150, 63.931 216.500 C 63.769 214.850, 63.268 213.003, 62.818 212.396 C 62.367 211.789, 61.968 210.214, 61.931 208.896 C 61.893 207.578, 61.636 202.310, 61.359 197.190 L 60.855 187.880 61.886 186.638 L 62.916 185.396 62.340 183.193 L 61.764 180.989 62.968 179.538 L 64.172 178.088 63.527 177.044 L 62.882 176 63.847 176 L 64.813 176 64.290 174 L 63.767 172 65.383 172 L 67 172 66.985 169.750 L 66.969 167.500 66 169 C 65.467 169.825, 65.024 170.175, 65.015 169.777 C 65.007 169.380, 66.219 166.455, 67.710 163.277 C 69.200 160.100, 70.775 157.350, 71.210 157.167 C 71.644 156.983, 72 156.218, 72 155.466 C 72 154.714, 75.134 150.890, 78.963 146.968 L 85.927 139.837 86.963 140.477 L 88 141.118 88 139.534 L 88 137.950 90.500 137 C 91.875 136.477, 93 135.588, 93 135.025 L 93 134 94.917 134 C 95.971 134, 96.983 133.662, 97.167 133.250 C 97.350 132.838, 99.525 131.536, 102 130.358 C 104.475 129.180, 108.730 127.419, 111.457 126.446 L 116.413 124.677 122.207 124.598 L 128 124.519 128 123.662 L 128 122.804 135.250 123.367 C 139.238 123.676, 143.764 123.945, 145.309 123.965 L 148.118 124 147.605 124.830 L 147.092 125.661 151.937 125.771 L 156.783 125.882 163.596 128.971 C 167.343 130.670, 171.238 132.811, 172.252 133.728 C 173.266 134.646, 174.862 135.508, 175.798 135.643 C 176.734 135.779, 178.117 136.814, 178.872 137.945 C 179.627 139.075, 180.864 140, 181.622 140 C 182.380 140, 183 140.450, 183 141 C 183 141.550, 183.620 142, 184.378 142 C 185.135 142, 186.275 142.626, 186.910 143.392 C 187.546 144.157, 188.909 145.005, 189.941 145.274 L 191.816 145.765 197.959 139.882 C 201.338 136.647, 204.378 134, 204.714 134 C 205.050 134, 208.619 130.542, 212.644 126.315 L 219.964 118.631 220.617 119.283 L 221.269 119.936 224.094 116.382 L 226.918 112.828 224.681 110.664 C 223.450 109.474, 221.169 106.944, 219.612 105.042 C 218.054 103.141, 216.184 101.497, 215.455 101.390 C 214.726 101.283, 212.525 99.592, 210.565 97.631 L 207 94.067 207 95.224 L 207 96.382 205.750 94.718 C 205.063 93.803, 201.125 91.221, 197 88.979 C 192.875 86.738, 188.713 84.648, 187.750 84.336 C 186.787 84.023, 186 83.369, 186 82.883 C 186 82.398, 185.190 82, 184.200 82 C 183.210 82, 181.972 81.589, 181.450 81.086 C 180.927 80.584, 179.375 80.022, 178 79.836 C 176.625 79.651, 174.905 78.938, 174.179 78.250 C 173.452 77.563, 171.791 77, 170.488 77 C 169.184 77, 167.816 76.511, 167.446 75.913 L 166.774 74.826 164.844 75.331 C 163.782 75.608, 161.470 75.380, 159.707 74.824 C 157.943 74.268, 155.150 73.650, 153.500 73.451 C 151.850 73.252, 148.974 72.784, 147.108 72.410 L 143.716 71.731 144.377 72.801 L 145.039 73.871 141.817 72.948 L 138.596 72.024 128.731 72.260 C 123.304 72.390, 118.284 72.821, 117.573 73.219 M 409.336 73 C 409.060 73.275, 408.421 73.556, 407.917 73.625 C 407.413 73.694, 404.863 73.813, 402.250 73.890 L 397.500 74.031 399 75.014 L 400.500 75.997 397.281 75.380 L 394.062 74.762 392.281 75.535 C 391.301 75.959, 390.050 76.375, 389.500 76.458 C 388.950 76.541, 387.233 77.147, 385.685 77.805 C 384.137 78.462, 382.279 79, 381.557 79 C 380.835 79, 379.730 79.621, 379.100 80.379 C 378.470 81.138, 376.728 82.016, 375.228 82.330 C 373.727 82.644, 368.225 85.447, 363 88.559 C 357.775 91.671, 353.350 94.618, 353.167 95.109 C 352.983 95.599, 352.266 96, 351.572 96 C 350.878 96, 349.495 96.900, 348.500 98 C 347.505 99.100, 346.085 100, 345.345 100 C 344.605 100, 344 100.374, 344 100.830 C 344 101.287, 341.861 103.987, 339.247 106.830 C 336.633 109.674, 333.907 112, 333.188 112 L 331.882 112 332.451 112.920 L 333.019 113.840 330.760 115.701 C 329.517 116.725, 327.524 119.349, 326.331 121.532 C 325.137 123.714, 322.688 128.313, 320.888 131.750 C 319.088 135.188, 317.252 138, 316.808 138 C 316.363 138, 316 139.035, 316 140.300 C 316 141.565, 315.618 143.028, 315.150 143.550 C 314.683 144.073, 313.252 147.875, 311.970 152 C 310.689 156.125, 309.383 159.725, 309.070 160 C 308.756 160.275, 308.392 161.400, 308.261 162.500 C 308.129 163.600, 307.763 166.952, 307.447 169.949 C 307.131 172.945, 306.605 175.830, 306.278 176.359 C 305.951 176.888, 305.778 179.949, 305.894 183.161 L 306.105 189 305.052 189 L 304 189 304 193.500 L 304 198 304.995 198 L 305.990 198 305.614 205.514 L 305.237 213.029 306.145 213.590 C 306.644 213.898, 307.014 215.579, 306.966 217.325 C 306.918 219.071, 307.595 223.425, 308.469 227 C 309.344 230.575, 310.329 235.178, 310.659 237.229 L 311.258 240.959 312.066 240.459 L 312.875 239.959 312.430 242.416 L 311.984 244.872 313.008 245.505 L 314.033 246.138 313.457 247.069 L 312.882 248 314.441 248 L 316 248 316.022 250.250 C 316.034 251.488, 316.924 253.625, 318 255 C 319.076 256.375, 319.966 258.288, 319.978 259.250 C 319.990 260.212, 320.450 261, 321 261 C 321.550 261, 322 261.681, 322 262.514 C 322 263.346, 322.563 265.034, 323.250 266.264 C 323.938 267.494, 324.726 268.725, 325.002 269 C 325.277 269.275, 326.170 270.791, 326.984 272.369 C 327.799 273.947, 329.478 276.197, 330.715 277.369 C 331.953 278.541, 332.973 279.769, 332.983 280.099 C 332.992 280.428, 336.547 284.297, 340.881 288.696 C 345.216 293.096, 349.491 296.974, 350.381 297.316 C 351.272 297.658, 352 298.401, 352 298.969 C 352 299.536, 352.509 300, 353.131 300 C 353.752 300, 356.340 301.473, 358.881 303.272 C 361.421 305.072, 365.413 307.390, 367.750 308.424 L 372 310.304 372 311.641 L 372 312.978 374.250 312.806 C 375.488 312.711, 378.075 313.333, 380 314.187 C 381.925 315.042, 385.525 316.301, 388 316.986 C 390.475 317.671, 393.625 318.603, 395 319.056 C 396.375 319.509, 399.863 320.174, 402.751 320.534 L 408.002 321.188 407.557 321.908 L 407.112 322.627 424.849 322.501 C 434.604 322.431, 443.090 322.062, 443.707 321.681 L 444.829 320.988 445.338 322.244 L 445.848 323.500 446.849 322.062 L 447.851 320.623 456.454 318.845 C 461.186 317.867, 466.732 316.341, 468.779 315.454 C 470.825 314.567, 476.325 311.984, 481 309.715 C 485.675 307.445, 490.372 304.781, 491.439 303.794 C 492.505 302.807, 493.767 302, 494.243 302 C 494.719 302, 496.547 300.652, 498.304 299.005 L 501.500 296.009 503.250 296.005 C 504.212 296.002, 505 295.582, 505 295.071 C 505 294.560, 506.616 292.429, 508.592 290.334 C 510.567 288.239, 512.563 285.816, 513.027 284.949 L 513.871 283.372 510.311 279.186 C 508.353 276.884, 506.132 275, 505.375 275 L 504 275 504 273.500 C 504 272.675, 503.506 272, 502.901 272 C 502.297 272, 500.497 270.602, 498.901 268.894 C 497.306 267.186, 496 265.386, 496 264.894 C 496 264.402, 495.211 264, 494.247 264 L 492.494 264 489.904 261.250 C 488.480 259.738, 485.489 256.387, 483.257 253.804 L 479.199 249.108 477.362 251.554 L 475.525 254 473.513 254.079 L 471.500 254.158 472.761 254.666 L 474.022 255.174 470.467 257.587 C 468.511 258.914, 466.256 260, 465.456 260 C 464.655 260, 464 260.406, 464 260.901 C 464 261.397, 462.538 262.653, 460.750 263.692 C 458.962 264.731, 455.025 266.375, 452 267.346 C 448.975 268.317, 442.900 269.519, 438.500 270.018 C 434.100 270.516, 428.364 271.057, 425.752 271.219 L 421.005 271.514 420.749 270.746 C 420.608 270.324, 418.357 269.885, 415.746 269.772 C 413.136 269.658, 411 269.213, 411 268.783 C 411 268.352, 409.740 268, 408.199 268 C 406.659 268, 404.188 267.438, 402.707 266.750 C 401.227 266.063, 400.012 265.163, 400.008 264.750 C 400.004 264.337, 399.095 264, 397.989 264 L 395.977 264 389.989 259.912 L 384 255.824 384 254.412 C 384 253.635, 383.663 252.993, 383.250 252.984 C 382.837 252.975, 381.038 251.678, 379.250 250.102 C 377.462 248.526, 376 246.749, 376 246.153 C 376 245.558, 375.100 244.589, 374 244 C 372.900 243.411, 372 242.452, 372 241.869 C 372 241.286, 371.178 239.614, 370.174 238.154 C 369.170 236.694, 366.957 232.125, 365.257 228 C 363.557 223.875, 361.566 217.800, 360.833 214.500 L 359.500 208.500 359.564 195.500 L 359.629 182.500 361.912 174.587 C 363.168 170.235, 365.577 163.935, 367.264 160.587 C 368.952 157.239, 370.597 154.275, 370.919 154 C 371.242 153.725, 372.740 151.679, 374.248 149.453 C 375.756 147.228, 378.975 143.515, 381.401 141.203 C 383.826 138.891, 386.255 137, 386.798 137 C 387.342 137, 388.045 136.325, 388.362 135.500 C 388.678 134.675, 389.626 134, 390.469 134 C 391.311 134, 392 133.627, 392 133.171 C 392 132.715, 394.363 131.306, 397.250 130.040 C 400.137 128.774, 403.400 127.387, 404.500 126.958 C 405.600 126.528, 409.163 125.687, 412.417 125.088 C 415.671 124.490, 421.611 124, 425.618 124 C 429.624 124, 435.286 124.469, 438.201 125.042 C 441.115 125.614, 445.975 126.812, 449 127.703 C 452.025 128.593, 455.175 129.670, 456 130.096 C 456.825 130.521, 458.962 131.458, 460.750 132.179 C 462.538 132.899, 464 133.997, 464 134.619 L 464 135.750 466.879 136.326 C 468.463 136.643, 470.456 137.599, 471.308 138.451 C 472.160 139.303, 473.291 140, 473.822 140 C 474.352 140, 475.070 140.739, 475.417 141.643 C 475.763 142.547, 476.315 143.018, 476.643 142.691 C 476.970 142.363, 477.892 142.749, 478.690 143.548 C 479.489 144.346, 480.720 145, 481.425 145 C 482.131 145, 483.922 143.875, 485.405 142.500 C 486.889 141.125, 488.755 140, 489.552 140 C 490.348 140, 491 139.565, 491 139.034 C 491 138.502, 492.459 136.477, 494.243 134.534 C 496.027 132.590, 498.061 131, 498.765 131 C 499.468 131, 500.533 129.924, 501.132 128.610 C 501.731 127.295, 503.409 125.616, 504.860 124.878 C 506.312 124.139, 509.075 121.898, 511 119.897 C 512.925 117.896, 515.298 115.985, 516.274 115.651 C 517.250 115.317, 518.431 114.022, 518.898 112.772 L 519.748 110.500 518.979 110 C 518.557 109.725, 515.615 107.250, 512.444 104.500 C 509.272 101.750, 505.737 98.600, 504.588 97.500 C 503.440 96.400, 502.275 95.484, 502 95.465 C 501.725 95.445, 500.547 94.898, 499.381 94.250 C 498.216 93.601, 496.979 93.355, 496.631 93.702 C 496.284 94.049, 496 93.874, 496 93.311 C 496 92.749, 492.063 90.316, 487.250 87.904 C 482.438 85.492, 478.350 83.177, 478.167 82.759 C 477.983 82.342, 477.061 82, 476.117 82 C 475.172 82, 473.939 81.539, 473.376 80.976 C 472.813 80.413, 470.698 79.890, 468.676 79.814 C 466.654 79.738, 465 79.337, 465 78.923 C 465 78.509, 461.512 77.409, 457.250 76.478 C 452.988 75.547, 448.493 74.396, 447.262 73.920 C 446.031 73.443, 444.365 73.306, 443.560 73.615 C 442.755 73.924, 441.512 73.813, 440.798 73.368 L 439.500 72.560 424.669 72.530 C 416.513 72.513, 409.613 72.725, 409.336 73 M 103 76.500 C 103 76.775, 103.225 77, 103.500 77 C 103.775 77, 104 76.775, 104 76.500 C 104 76.225, 103.775 76, 103.500 76 C 103.225 76, 103 76.225, 103 76.500 M 498 95.500 C 498 95.775, 498.225 96, 498.500 96 C 498.775 96, 499 95.775, 499 95.500 C 499 95.225, 498.775 95, 498.500 95 C 498.225 95, 498 95.225, 498 95.500 M 329 119.500 C 329 119.775, 329.225 120, 329.500 120 C 329.775 120, 330 119.775, 330 119.500 C 330 119.225, 329.775 119, 329.500 119 C 329.225 119, 329 119.225, 329 119.500 M 11 163.500 C 11 163.775, 11.225 164, 11.500 164 C 11.775 164, 12 163.775, 12 163.500 C 12 163.225, 11.775 163, 11.500 163 C 11.225 163, 11 163.225, 11 163.500 M 309 215.500 C 309 215.775, 309.225 216, 309.500 216 C 309.775 216, 310 215.775, 310 215.500 C 310 215.225, 309.775 215, 309.500 215 C 309.225 215, 309 215.225, 309 215.500 M 8 224.500 C 8 224.775, 8.225 225, 8.500 225 C 8.775 225, 9 224.775, 9 224.500 C 9 224.225, 8.775 224, 8.500 224 C 8.225 224, 8 224.225, 8 224.500 M 315 246.500 C 315 246.775, 315.225 247, 315.500 247 C 315.775 247, 316 246.775, 316 246.500 C 316 246.225, 315.775 246, 315.500 246 C 315.225 246, 315 246.225, 315 246.500 M 237 264.500 C 237 264.775, 237.225 265, 237.500 265 C 237.775 265, 238 264.775, 238 264.500 C 238 264.225, 237.775 264, 237.500 264 C 237.225 264, 237 264.225, 237 264.500 M 408 269.500 C 408 269.775, 408.225 270, 408.500 270 C 408.775 270, 409 269.775, 409 269.500 C 409 269.225, 408.775 269, 408.500 269 C 408.225 269, 408 269.225, 408 269.500 M 112 271.500 C 112 271.775, 112.225 272, 112.500 272 C 112.775 272, 113 271.775, 113 271.500 C 113 271.225, 112.775 271, 112.500 271 C 112.225 271, 112 271.225, 112 271.500 M 417.333 271.667 L 418 272.333 418.667 271.667 L 419.333 271 418 271 L 416.667 271 417.333 271.667 M 438 271.500 C 438 271.775, 438.225 272, 438.500 272 C 438.775 272, 439 271.775, 439 271.500 C 439 271.225, 438.775 271, 438.500 271 C 438.225 271, 438 271.225, 438 271.500 M 148.813 273.683 C 149.534 273.972, 150.397 273.936, 150.729 273.604 C 151.061 273.272, 150.471 273.036, 149.417 273.079 L 147.500 273.158 148.813 273.683 M 237.320 322 L 237.320 328.500 237.723 325.250 C 237.945 323.462, 237.945 320.538, 237.723 318.750 L 237.320 315.500 237.320 322 M 400 321.500 C 400 321.775, 400.225 322, 400.500 322 C 400.775 322, 401 321.775, 401 321.500 C 401 321.225, 400.775 321, 400.500 321 C 400.225 321, 400 321.225, 400 321.500 M 436 324 C 436 324.550, 436.337 324.993, 436.750 324.985 C 437.163 324.976, 438.175 324.533, 439 324 L 440.500 323.031 438.250 323.015 L 436 323 436 324 M 432.333 324.667 L 433 325.333 433.667 324.667 L 434.333 324 433 324 L 431.667 324 432.333 324.667 M 227 351.500 C 227 351.775, 227.225 352, 227.500 352 C 227.775 352, 228 351.775, 228 351.500 C 228 351.225, 227.775 351, 227.500 351 C 227.225 351, 227 351.225, 227 351.500 M 247 361.500 C 247 361.775, 247.225 362, 247.500 362 C 247.775 362, 248 361.775, 248 361.500 C 248 361.225, 247.775 361, 247.500 361 C 247.225 361, 247 361.225, 247 361.500 M 252 361.500 C 252 361.775, 252.225 362, 252.500 362 C 252.775 362, 253 361.775, 253 361.500 C 253 361.225, 252.775 361, 252.500 361 C 252.225 361, 252 361.225, 252 361.500 M 247.654 364.250 C 247.909 364.663, 249.779 365.036, 251.809 365.079 C 253.839 365.122, 255.050 365.310, 254.500 365.496 C 253.950 365.682, 251.302 366.048, 248.615 366.310 L 243.730 366.785 245.115 365.908 L 246.500 365.031 245.443 365.015 C 244.861 365.007, 242.949 366.190, 241.193 367.645 L 238 370.290 238 376.045 L 238 381.800 241.600 385.400 L 245.200 389 247.541 389 C 248.829 389, 250.129 389.399, 250.430 389.887 L 250.978 390.774 255.091 389.357 C 257.352 388.578, 259.761 387.382, 260.444 386.699 C 261.126 386.017, 262.203 384.489, 262.838 383.303 L 263.991 381.148 263.834 377.128 C 263.747 374.917, 263.412 373.184, 263.088 373.276 C 262.765 373.369, 261.038 371.960, 259.250 370.146 C 257.462 368.331, 256 366.251, 256 365.524 L 256 364.201 251.595 363.851 L 247.191 363.500 247.654 364.250 M 240 364.500 C 240 364.775, 240.225 365, 240.500 365 C 240.775 365, 241 364.775, 241 364.500 C 241 364.225, 240.775 364, 240.500 364 C 240.225 364, 240 364.225, 240 364.500 M 260.500 369 C 260.840 369.550, 261.343 370, 261.618 370 C 261.893 370, 261.840 369.550, 261.500 369 C 261.160 368.450, 260.657 368, 260.382 368 C 260.107 368, 260.160 368.450, 260.500 369 M 262 371.500 C 262 371.775, 262.225 372, 262.500 372 C 262.775 372, 263 371.775, 263 371.500 C 263 371.225, 262.775 371, 262.500 371 C 262.225 371, 262 371.225, 262 371.500 M 236 377 L 236 378.333 236.667 377.667 L 237.333 377 236.667 376.333 L 236 375.667 236 377 M 240 387 C 240 387.550, 240.477 388, 241.059 388 L 242.118 388 241.500 387 C 241.160 386.450, 240.684 386, 240.441 386 C 240.198 386, 240 386.450, 240 387 M 240 389.500 C 240 389.775, 240.225 390, 240.500 390 C 240.775 390, 241 389.775, 241 389.500 C 241 389.225, 240.775 389, 240.500 389 C 240.225 389, 240 389.225, 240 389.500 M 244 390.500 C 244 390.775, 244.225 391, 244.500 391 C 244.775 391, 245 390.775, 245 390.500 C 245 390.225, 244.775 390, 244.500 390 C 244.225 390, 244 390.225, 244 390.500 M 247.500 391 C 247.840 391.550, 248.343 392, 248.618 392 C 248.893 392, 248.840 391.550, 248.500 391 C 248.160 390.450, 247.657 390, 247.382 390 C 247.107 390, 247.160 390.450, 247.500 391 M 255 390.500 C 255 390.775, 255.225 391, 255.500 391 C 255.775 391, 256 390.775, 256 390.500 C 256 390.225, 255.775 390, 255.500 390 C 255.225 390, 255 390.225, 255 390.500" stroke="none" fill="#172155" fill-rule="evenodd"/></svg>